<?xml version="1.0" encoding="UTF-8" standalone="no"?>
<!-- Created with Inkscape (http://www.inkscape.org/) -->

<svg
   width="18.520836mm"
   height="20.372913mm"
   viewBox="0 0 18.520836 20.372913"
   version="1.1"
   id="svg1"
   inkscape:version="1.3.2 (091e20ef0f, 2023-11-25, custom)"
   sodipodi:docname="cooktop.svg"
   xmlns:inkscape="http://www.inkscape.org/namespaces/inkscape"
   xmlns:sodipodi="http://sodipodi.sourceforge.net/DTD/sodipodi-0.dtd"
   xmlns="http://www.w3.org/2000/svg"
   xmlns:svg="http://www.w3.org/2000/svg">
  <sodipodi:namedview
     id="namedview1"
     pagecolor="#ffffff"
     bordercolor="#cccccc"
     borderopacity="1"
     inkscape:showpageshadow="0"
     inkscape:pageopacity="1"
     inkscape:pagecheckerboard="0"
     inkscape:deskcolor="#d1d1d1"
     inkscape:document-units="mm"
     inkscape:zoom="0.76257015"
     inkscape:cx="374.39179"
     inkscape:cy="541.58952"
     inkscape:window-width="1920"
     inkscape:window-height="1056"
     inkscape:window-x="0"
     inkscape:window-y="0"
     inkscape:window-maximized="1"
     inkscape:current-layer="layer1" />
  <defs
     id="defs1" />
  <g
     inkscape:label="Capa 1"
     inkscape:groupmode="layer"
     id="layer1"
     transform="translate(-6.0004294,-5.6853504)">
    <path
       fill="none"
       stroke="#000000"
       stroke-miterlimit="10"
       d="M 24.388973,25.925972 H 6.1327209 V 5.8176419 H 24.388973 Z M 6.0004299,23.015552 H 24.256683"
       id="path1"
       style="stroke-width:0.264583" />
    <path
       stroke="#000000"
       stroke-miterlimit="10"
       d="m 22.994883,6.6113919 h -6.3082 c -0.3765,0 -0.4998,0.0569 -0.4998,0.46064 v 6.2068601 c 0,0.40296 0.1233,0.74083 0.4998,0.74083 h 6.30846 c 0.37677,0 0.60034,-0.33761 0.60034,-0.74083 V 7.0720319 c -2.6e-4,-0.40376 -0.22383,-0.46064 -0.6006,-0.46064 z m -1.66555,4.4981801 1.35731,1.35731 -0.4826,0.48181 -1.34911,-1.34938 c -0.57626,0.40191 -1.33879,0.41752 -1.92934,0.0474 l -1.36287,1.36234 -0.48234,-0.4818 1.34858,-1.34858 c -0.43021,-0.6014 -0.43444,-1.4118201 -0.0124,-2.0174501 l -1.33615,-1.33615 0.48234,-0.48207 1.34408,1.34382 c 0.59955,-0.38576 1.3806,-0.36909 1.96506,0.0489 l 1.33191,-1.33271 0.4826,0.4826 -1.34646,1.3462 c 0.35904,0.57335 0.35586,1.3078401 -0.0106,1.8777501 z"
       id="path2"
       style="stroke-width:0.264583" />
    <path
       stroke="#000000"
       stroke-miterlimit="10"
       d="m 22.994883,14.813472 h -6.3082 c -0.3765,0 -0.4998,0.26035 -0.4998,0.66437 v 6.20686 c 0,0.40296 0.1233,0.5371 0.4998,0.5371 h 6.30846 c 0.37677,0 0.60034,-0.13414 0.60034,-0.5371 v -6.20686 c -2.6e-4,-0.40402 -0.22383,-0.66437 -0.6006,-0.66437 z m -1.66555,4.70191 1.35731,1.35705 -0.4826,0.48181 -1.34911,-1.34938 c -0.57626,0.4019 -1.33879,0.41751 -1.92934,0.0474 l -1.36287,1.36261 -0.48234,-0.48181 1.34858,-1.34858 c -0.43021,-0.6014 -0.43444,-1.41208 -0.0124,-2.01771 l -1.33615,-1.33615 0.48234,-0.48181 1.34408,1.34409 c 0.59955,-0.38629 1.3806,-0.36936 1.96506,0.0487 l 1.33191,-1.33297 0.4826,0.4826 -1.34646,1.34673 c 0.35904,0.57309 0.35586,1.3073 -0.0106,1.87748 z"
       id="path3"
       style="stroke-width:0.264583" />
    <path
       fill="none"
       stroke="#000000"
       stroke-miterlimit="10"
       d="m 22.805173,24.445362 c 0,0.47096 -0.38206,0.85355 -0.85381,0.85355 -0.47122,0 -0.85275,-0.38232 -0.85275,-0.85355 0,-0.47175 0.38126,-0.85354 0.85275,-0.85354 0.47149,2.6e-4 0.85381,0.38179 0.85381,0.85354 z m -0.3384,0.67892 -1.01441,-1.37054"
       id="path4"
       style="stroke-width:0.264583" />
    <path
       fill="none"
       stroke="#000000"
       stroke-miterlimit="10"
       d="m 19.221133,24.445362 c 0,0.47096 -0.38206,0.85355 -0.85381,0.85355 -0.47123,0 -0.85302,-0.38232 -0.85302,-0.85355 0,-0.47175 0.38153,-0.85354 0.85302,-0.85354 0.47148,2.6e-4 0.85381,0.38179 0.85381,0.85354 z m -0.33841,0.67892 -1.01441,-1.37054"
       id="path5"
       style="stroke-width:0.264583" />
    <path
       stroke="#000000"
       stroke-miterlimit="10"
       d="M 13.668323,6.6113919 H 7.3601229 c -0.376502,0 -0.433652,-0.0265 -0.433652,0.37729 v 6.2068601 c 0,0.40296 0.05715,0.82418 0.433652,0.82418 h 6.3084601 c 0.37677,0 0.66649,-0.42095 0.66649,-0.82418 V 6.9886819 c -2.7e-4,-0.40375 -0.28999,-0.37729 -0.66675,-0.37729 z m -1.66556,4.4148401 1.35732,1.35731 -0.4826,0.4818 -1.34911,-1.34937 c -0.57627,0.4019 -1.338796,0.41751 -1.9293451,0.0474 l -1.362605,1.36234 -0.482335,-0.48181 1.348581,-1.34858 c -0.430212,-0.6014 -0.434446,-1.4118101 -0.01243,-2.0174501 l -1.336146,-1.33614 0.482335,-0.48207 1.344084,1.34382 c 0.5995451,-0.38577 1.3805911,-0.3691 1.9650511,0.0489 l 1.33192,-1.3327 0.4826,0.4826 -1.34646,1.3462 c 0.35877,0.57335 0.35559,1.3078301 -0.0109,1.8777501 z"
       id="path6"
       style="stroke-width:0.264583" />
    <path
       stroke="#000000"
       stroke-miterlimit="10"
       d="M 13.668323,14.813472 H 7.3601229 c -0.376502,0 -0.433652,0.17701 -0.433652,0.58103 v 6.20659 c 0,0.40296 0.05715,0.62071 0.433652,0.62071 h 6.3084601 c 0.37677,0 0.66649,-0.21748 0.66649,-0.62071 v -6.20659 c -2.7e-4,-0.40402 -0.28999,-0.58103 -0.66675,-0.58103 z m -1.66556,4.61883 1.35732,1.35705 -0.4826,0.48154 -1.34911,-1.34937 c -0.57627,0.40216 -1.338796,0.41751 -1.9293451,0.0476 l -1.362605,1.36208 -0.482335,-0.48154 1.348581,-1.34885 c -0.430212,-0.6014 -0.434446,-1.41182 -0.01243,-2.01745 l -1.336146,-1.33614 0.482335,-0.48181 1.344084,1.34435 c 0.5995451,-0.38656 1.3805911,-0.36936 1.9650511,0.0487 l 1.33192,-1.33323 0.4826,0.4826 -1.34646,1.34646 c 0.35877,0.57309 0.35559,1.30757 -0.0109,1.87801 z"
       id="path7"
       style="stroke-width:0.264583" />
    <path
       fill="none"
       stroke="#000000"
       stroke-miterlimit="10"
       d="m 13.478613,24.362282 c 0,0.4707 -0.38206,0.85329 -0.85381,0.85329 -0.47122,0 -0.85275,-0.38233 -0.85275,-0.85329 0,-0.47175 0.38126,-0.85381 0.85275,-0.85381 0.47149,0 0.85381,0.38206 0.85381,0.85381 z m -0.3384,0.6784 -1.01441,-1.37055"
       id="path8"
       style="stroke-width:0.264583" />
    <path
       fill="none"
       stroke="#000000"
       stroke-miterlimit="10"
       d="m 9.8945669,24.362282 c 0,0.4707 -0.382058,0.85329 -0.85381,0.85329 -0.471223,0 -0.853017,-0.38233 -0.853017,-0.85329 0,-0.47175 0.381529,-0.85381 0.853017,-0.85381 0.471487,0 0.85381,0.38206 0.85381,0.85381 z m -0.338402,0.6784 -1.014412,-1.37055"
       id="path9"
       style="stroke-width:0.264583" />
  </g>
</svg>
