<?xml version="1.0" encoding="UTF-8"?>
<svg xmlns="http://www.w3.org/2000/svg" width="700pt" height="700pt" viewBox="0 0 700 700">
  <path d="M519.4 451.36v44.801c-.070313 4.7734-2.0234 9.3242-5.4297 12.668s-7.9961 5.2109-12.77 5.1953h-408.41c-4.8125 0-9.4297-1.9102-12.832-5.3125-3.4023-3.4023-5.3125-8.0195-5.3125-12.832v-44.801c.0625-13.379 6.0977-26.031 16.465-34.492 40.266-32.242 83.879-60.066 130.09-82.992 1.3945-.67969 2.2852-2.0898 2.2969-3.6406v-43.176c-6.4102-10.699-10.797-22.488-12.938-34.777-4.8164-.39062-11.199-7.168-18.09-31.414-9.3516-33.152.55859-38.023 9.0156-37.238l.003906-.003906c-1.5781-4.4297-2.7969-8.9805-3.6406-13.609-3.3164-14.371-3.3164-29.309 0-43.68 4.2148-16.992 13.031-32.492 25.48-44.797 7.0195-7.4531 14.938-14 23.574-19.488 7.0156-4.8281 14.668-8.6523 22.738-11.371 6.7227-2.293 13.734-3.6328 20.832-3.9727 18.184-1.9336 36.508 1.9883 52.305 11.199 10.48 5.4141 19.293 13.586 25.48 23.633 0 0 42.281 3.0234 28 88.816v-.003907c-.84375 4.6289-2.0625 9.1797-3.6406 13.609 8.457-.78516 18.426 4.0898 9.0156 37.238-6.832 24.082-13.328 31.082-18.031 31.082-2.0781 12.07-6.3711 23.652-12.656 34.16v43.566c.011719 1.5508.90234 2.9609 2.293 3.6406 46.098 23.113 89.578 51.105 129.7 83.496 10.363 8.4648 16.402 21.117 16.461 34.496zm15.398-145.6-30.125.003907c-5.7031 0-10.969 3.0391-13.82 7.9766-2.8516 4.9414-2.8516 11.023 0 15.961 2.8516 4.9375 8.1172 7.9805 13.82 7.9805h30.129c5.7031 0 10.969-3.043 13.82-7.9805 2.8516-4.9375 2.8516-11.02 0-15.961-2.8516-4.9375-8.1172-7.9766-13.82-7.9766zm74.594-57.062h-104.72c-5.7031 0-10.969 3.043-13.82 7.9805-2.8516 4.9375-2.8516 11.023 0 15.961 2.8516 4.9375 8.1172 7.9805 13.82 7.9805h104.72c5.7031 0 10.973-3.043 13.824-7.9805 2.8516-4.9375 2.8516-11.023 0-15.961-2.8516-4.9375-8.1211-7.9805-13.824-7.9805zm0-57.23h-104.72c-5.7031 0-10.969 3.043-13.82 7.9805-2.8516 4.9375-2.8516 11.02 0 15.957 2.8516 4.9414 8.1172 7.9805 13.82 7.9805h104.72c5.7031 0 10.973-3.0391 13.824-7.9805 2.8516-4.9375 2.8516-11.02 0-15.957-2.8516-4.9375-8.1211-7.9805-13.824-7.9805zm-154.95 0h-8.3398c-5.7031 0-10.973 3.043-13.824 7.9805-2.8516 4.9375-2.8516 11.02 0 15.957 2.8516 4.9414 8.1211 7.9805 13.824 7.9805h8.2891-.003907c5.7031 0 10.973-3.0391 13.824-7.9805 2.8516-4.9375 2.8516-11.02 0-15.957-2.8516-4.9375-8.1211-7.9805-13.824-7.9805zm0 57.23h-8.3398c-5.7031 0-10.973 3.043-13.824 7.9805-2.8516 4.9375-2.8516 11.023 0 15.961 2.8516 4.9375 8.1211 7.9805 13.824 7.9805h8.2891-.003907c5.7031 0 10.973-3.043 13.824-7.9805 2.8516-4.9375 2.8516-11.023 0-15.961-2.8516-4.9375-8.1211-7.9805-13.824-7.9805zm0 57.23-8.3398.003907c-5.7031 0-10.973 3.0391-13.824 7.9766-2.8516 4.9414-2.8516 11.023 0 15.961 2.8516 4.9375 8.1211 7.9805 13.824 7.9805h8.2891-.003907c5.7031 0 10.973-3.043 13.824-7.9805 2.8516-4.9375 2.8516-11.02 0-15.961-2.8516-4.9375-8.1211-7.9766-13.824-7.9766z"/>
</svg>